PathFileType	4	(X/Y/Z)	C:\Git\research_data\Projects\torsion_deformities_healthy_kinematics\simulations\TD01\pre\dynamic_14_l\marker_experimental.trc
DataRate	CameraRate	NumFrames	NumMarkers	Units	OrigDataRate	OrigDataStartFrame	OrigNumFrames
200	200	4	30	mm	200	155	618
Frame#	Time	C7			T10			CLAV			STRN			RBAK			LASI			RASI			SACR			RT1			RT2			RT3			RKNE			RS1			RS2			RS3			RANK			RHEE			RTOE			LT1			LT2			LT3			LKNE			LS1			LS2			LS3			LANK			LHEE			LTOE			RHJC			LHJC		
		X1	Y1	Z1	X2	Y2	Z2	X3	Y3	Z3	X4	Y4	Z4	X5	Y5	Z5	X6	Y6	Z6	X7	Y7	Z7	X8	Y8	Z8	X9	Y9	Z9	X10	Y10	Z10	X11	Y11	Z11	X12	Y12	Z12	X13	Y13	Z13	X14	Y14	Z14	X15	Y15	Z15	X16	Y16	Z16	X17	Y17	Z17	X18	Y18	Z18	X19	Y19	Z19	X20	Y20	Z20	X21	Y21	Z21	X22	Y22	Z22	X23	Y23	Z23	X24	Y24	Z24	X25	Y25	Z25	X26	Y26	Z26	X27	Y27	Z27	X28	Y28	Z28	X29	Y29	Z29	X30	Y30	Z30	

155	0.770000	-965.341675	1254.977539	-211.586136	-1013.447998	1073.417969	-214.025467	-848.380676	1203.641113	-221.645584	-805.185974	1069.286865	-230.971039	-995.312500	1181.895020	-120.051109	-881.633423	867.198364	-321.740082	-880.761292	869.641235	-119.755409	-1044.303955	907.529236	-217.305359	-862.054199	689.366516	-65.030350	-873.462158	624.941528	-55.095135	-823.792908	635.509521	-69.463211	-798.382568	494.117920	-67.559067	-901.633789	396.503052	-57.127991	-948.330505	351.312500	-71.580879	-903.251038	330.167389	-62.535069	-1028.566040	174.979767	-103.120155	-1064.654175	180.364594	-163.963547	-922.235229	89.856750	-93.992683	-917.148987	669.355774	-351.889252	-939.184204	607.157166	-340.011108	-888.853210	612.356140	-330.976654	-908.012695	462.465576	-297.501099	-966.635803	326.583344	-321.143372	-987.693420	264.249420	-311.020172	-937.760498	270.895264	-299.783447	-1013.989441	91.948151	-276.591705	-1058.989990	85.171188	-238.049484	-871.151794	65.066483	-240.483231	-946.313904	811.470638	-145.811286	-946.952546	809.681780	-293.719966	
156	0.775000	-958.692566	1254.902344	-211.565414	-1006.911926	1073.339844	-213.932388	-841.785339	1203.448608	-221.601395	-798.700684	1069.056763	-231.035019	-988.764221	1181.770020	-120.125175	-875.662231	866.910339	-321.761139	-874.066223	869.551514	-119.711166	-1037.928101	907.493042	-216.679718	-854.108459	690.119751	-64.743309	-865.008972	625.649414	-54.387699	-815.599426	636.450806	-69.474770	-789.352173	495.314453	-67.564331	-890.395813	395.203735	-56.930805	-935.825562	348.753143	-71.405083	-890.253601	328.808868	-62.055504	-1011.062561	169.961670	-102.264168	-1047.242920	173.983383	-163.129364	-902.090210	88.477455	-92.621529	-912.507935	668.941528	-351.583771	-935.351440	606.935425	-339.823151	-884.935364	611.540649	-330.685974	-905.813232	461.972076	-297.506561	-965.961975	326.545258	-321.060577	-987.417847	264.395477	-310.824219	-937.237732	270.616333	-300.136108	-1013.868713	92.092316	-276.470398	-1058.861694	85.446999	-237.913864	-871.048767	65.008636	-240.489670	-939.770595	811.393665	-145.487586	-940.939273	809.459663	-293.438865	
157	0.780000	-952.032593	1254.769531	-211.539551	-1000.369080	1073.205322	-213.824463	-835.177307	1203.192383	-221.554657	-792.207581	1068.760986	-231.098480	-982.204712	1181.587646	-120.191666	-869.687195	866.577148	-321.751495	-867.384399	869.380188	-119.627617	-1031.545898	907.400269	-216.026932	-846.189087	690.738770	-64.474121	-856.607666	626.225403	-53.745617	-807.443298	637.251953	-69.507263	-780.511536	496.337952	-67.619904	-879.204041	393.732971	-56.728100	-923.310913	346.024078	-71.210922	-877.251343	327.332581	-61.599167	-993.341675	164.856033	-101.399368	-1029.591187	167.527512	-162.274857	-881.821655	87.133987	-91.293861	-907.898743	668.515137	-351.262360	-931.507446	606.721924	-339.635529	-881.023254	610.752258	-330.344940	-903.655640	461.486603	-297.515076	-965.255798	326.515289	-320.992767	-987.091553	264.549042	-310.653473	-936.697693	270.355072	-300.461517	-1013.749878	92.248192	-276.359253	-1058.736084	85.739258	-237.790405	-870.954407	64.951538	-240.497696	-933.239536	811.239988	-145.141998	-934.925692	809.187542	-293.141407	
158	0.785000	-945.361023	1254.579468	-211.507385	-993.818481	1073.014771	-213.700439	-828.555481	1202.872803	-221.504227	-785.705566	1068.400513	-231.159668	-975.633057	1181.348511	-120.249275	-863.706482	866.203003	-321.711243	-860.712341	869.129272	-119.506599	-1025.155029	907.253723	-215.346924	-838.309937	691.220093	-64.223824	-848.274963	626.664001	-53.184483	-799.336365	637.910889	-69.555138	-771.863892	497.184662	-67.727470	-868.060364	392.098175	-56.511478	-910.785950	343.132843	-70.986641	-864.243896	325.751312	-61.167702	-975.400879	159.689133	-100.527412	-1011.696228	161.023193	-161.403503	-861.431763	85.851585	-90.008667	-903.325439	668.084106	-350.931946	-927.651550	606.523804	-339.448486	-877.116882	609.998474	-329.968872	-901.532349	461.014374	-297.526642	-964.477966	326.495819	-320.940216	-986.672424	264.709534	-310.514313	-936.107422	270.116638	-300.742188	-1013.630005	92.418503	-276.261444	-1058.612671	86.053658	-237.682709	-870.868469	64.894524	-240.507568	-926.717465	811.012380	-144.776134	-928.909741	808.869799	-292.828070	
